<svg width="11" height="11" viewBox="0 0 11 11" fill="none" xmlns="http://www.w3.org/2000/svg">
<g clip-path="url(#clip0_1_210)">
<path d="M2.63084 7.33332C2.68126 7.10874 2.58959 6.78791 2.42917 6.62749L1.31542 5.51374C0.96709 5.16541 0.82959 4.79416 0.930423 4.47332C1.03584 4.15249 1.36126 3.93249 1.84709 3.84999L3.27709 3.61166C3.48334 3.57499 3.73542 3.39166 3.83167 3.20374L4.62001 1.62249C4.84917 1.16874 5.16084 0.916656 5.50001 0.916656C5.83917 0.916656 6.15084 1.16874 6.38001 1.62249L7.16834 3.20374C7.22792 3.32291 7.35167 3.43749 7.48459 3.51541L2.54834 8.45166C2.48417 8.51582 2.37417 8.45624 2.39251 8.36457L2.63084 7.33332Z" fill="#F7C032"/>
<path d="M8.57084 6.62841C8.40584 6.79341 8.31418 7.10966 8.36918 7.33424L8.68543 8.71383C8.81834 9.28674 8.73584 9.71758 8.45168 9.92383C8.33098 10.0082 8.18638 10.0516 8.03918 10.0476C7.80543 10.0476 7.53043 9.96049 7.22792 9.78174L5.88501 8.98424C5.67417 8.86049 5.32584 8.86049 5.11501 8.98424L3.77209 9.78174C3.26334 10.0797 2.82792 10.1301 2.54834 9.92383C2.44292 9.84591 2.36501 9.74049 2.31459 9.60299L7.88792 4.02966C8.09876 3.81883 8.39668 3.72258 8.68543 3.77299L9.14834 3.85091C9.63417 3.93341 9.95959 4.15341 10.065 4.47424C10.1658 4.79508 10.0283 5.16633 9.68001 5.51466L8.57084 6.62841Z" fill="#FEDF90"/>
</g>
<defs>
<clipPath id="clip0_1_210">
<rect width="11" height="11" fill="white"/>
</clipPath>
</defs>
</svg>
