<svg width="11" height="11" viewBox="0 0 11 11" fill="none" xmlns="http://www.w3.org/2000/svg">
<g clip-path="url(#clip0_1_216)">
<path d="M2.63084 7.33333C2.68126 7.10875 2.58959 6.78791 2.42917 6.6275L1.31542 5.51375C0.96709 5.16541 0.82959 4.79416 0.930423 4.47333C1.03584 4.1525 1.36126 3.9325 1.84709 3.85L3.27709 3.61166C3.48334 3.575 3.73542 3.39166 3.83167 3.20375L4.62001 1.6225C4.84917 1.16875 5.16084 0.916664 5.50001 0.916664C5.83917 0.916664 6.15084 1.16875 6.38001 1.6225L7.16834 3.20375C7.22792 3.32291 7.35167 3.4375 7.48459 3.51541L2.54834 8.45166C2.48417 8.51583 2.37417 8.45625 2.39251 8.36458L2.63084 7.33333Z" fill="#F7C032"/>
<path d="M8.57084 6.62842C8.40584 6.79342 8.31418 7.10967 8.36918 7.33425L8.68543 8.71383C8.81834 9.28675 8.73584 9.71759 8.45168 9.92384C8.33098 10.0082 8.18638 10.0516 8.03918 10.0476C7.80543 10.0476 7.53043 9.9605 7.22792 9.78175L5.88501 8.98425C5.67417 8.8605 5.32584 8.8605 5.11501 8.98425L3.77209 9.78175C3.26334 10.0797 2.82792 10.1301 2.54834 9.92384C2.44292 9.84592 2.36501 9.7405 2.31459 9.603L7.88792 4.02967C8.09876 3.81883 8.39668 3.72258 8.68543 3.773L9.14834 3.85092C9.63417 3.93342 9.95959 4.15342 10.065 4.47425C10.1658 4.79508 10.0283 5.16633 9.68001 5.51467L8.57084 6.62842Z" fill="#FEDF90"/>
</g>
<defs>
<clipPath id="clip0_1_216">
<rect width="11" height="11" fill="white"/>
</clipPath>
</defs>
</svg>
