<svg width="11" height="11" viewBox="0 0 11 11" fill="none" xmlns="http://www.w3.org/2000/svg">
<g clip-path="url(#clip0_1_213)">
<path d="M2.63081 7.33332C2.68123 7.10874 2.58956 6.78791 2.42914 6.62749L1.31539 5.51374C0.967059 5.16541 0.829559 4.79416 0.930393 4.47332C1.03581 4.15249 1.36123 3.93249 1.84706 3.84999L3.27706 3.61166C3.48331 3.57499 3.73539 3.39166 3.83164 3.20374L4.61998 1.62249C4.84914 1.16874 5.16081 0.916656 5.49998 0.916656C5.83914 0.916656 6.15081 1.16874 6.37998 1.62249L7.16831 3.20374C7.22789 3.32291 7.35164 3.43749 7.48456 3.51541L2.54831 8.45166C2.48414 8.51582 2.37414 8.45624 2.39248 8.36457L2.63081 7.33332Z" fill="#F7C032"/>
<path d="M8.57083 6.62841C8.40583 6.79341 8.31416 7.10966 8.36916 7.33424L8.68541 8.71383C8.81833 9.28674 8.73583 9.71758 8.45166 9.92383C8.33096 10.0082 8.18636 10.0516 8.03916 10.0476C7.80541 10.0476 7.53041 9.96049 7.22791 9.78174L5.88499 8.98424C5.67416 8.86049 5.32583 8.86049 5.11499 8.98424L3.77208 9.78174C3.26333 10.0797 2.82791 10.1301 2.54833 9.92383C2.44291 9.84591 2.36499 9.74049 2.31458 9.60299L7.88791 4.02966C8.09874 3.81883 8.39666 3.72258 8.68541 3.77299L9.14833 3.85091C9.63416 3.93341 9.95958 4.15341 10.065 4.47424C10.1658 4.79508 10.0283 5.16633 9.67999 5.51466L8.57083 6.62841Z" fill="#FEDF90"/>
</g>
<defs>
<clipPath id="clip0_1_213">
<rect width="11" height="11" fill="white"/>
</clipPath>
</defs>
</svg>
